<mxfile host="app.diagrams.net" modified="2021-01-13T07:02:09.967Z" agent="5.0 (Windows NT 10.0; WOW64) AppleWebKit/537.36 (KHTML, like Gecko) Chrome/70.0.3538.25 Safari/537.36 Core/1.70.3861.400 QQBrowser/10.7.4313.400" etag="QNggD2tl1BTvWbWDPXrz" version="14.1.9" type="github" pages="3">
  <diagram id="vZh9OYVmvURLcyZ7zChU" name="MD5执行端">
    <mxGraphModel dx="1381" dy="890" grid="1" gridSize="10" guides="1" tooltips="1" connect="1" arrows="1" fold="1" page="1" pageScale="1" pageWidth="827" pageHeight="1169" math="0" shadow="0">
      <root>
        <mxCell id="0" />
        <mxCell id="1" parent="0" />
        <mxCell id="xCJOUk_nlppZlGT4sAmL-4" value="发起MD5任务" style="edgeStyle=orthogonalEdgeStyle;rounded=0;orthogonalLoop=1;jettySize=auto;html=1;entryX=0;entryY=0.5;entryDx=0;entryDy=0;" parent="1" source="xCJOUk_nlppZlGT4sAmL-1" target="xCJOUk_nlppZlGT4sAmL-5" edge="1">
          <mxGeometry relative="1" as="geometry">
            <mxPoint x="405" y="140" as="targetPoint" />
          </mxGeometry>
        </mxCell>
        <mxCell id="xCJOUk_nlppZlGT4sAmL-1" value="start_MD5" style="rounded=0;whiteSpace=wrap;html=1;fillColor=#dae8fc;strokeColor=#6c8ebf;" parent="1" vertex="1">
          <mxGeometry x="71" y="70" width="120" height="60" as="geometry" />
        </mxCell>
        <mxCell id="xCJOUk_nlppZlGT4sAmL-9" value="根据任务ID从缓存读取" style="edgeStyle=orthogonalEdgeStyle;rounded=0;orthogonalLoop=1;jettySize=auto;html=1;" parent="1" source="xCJOUk_nlppZlGT4sAmL-2" target="xCJOUk_nlppZlGT4sAmL-7" edge="1">
          <mxGeometry relative="1" as="geometry" />
        </mxCell>
        <mxCell id="xCJOUk_nlppZlGT4sAmL-2" value="getInfo&lt;br&gt;获取状态，ID，开始时间，进度，结束时间，计算结果" style="rounded=0;whiteSpace=wrap;html=1;fillColor=#dae8fc;strokeColor=#6c8ebf;" parent="1" vertex="1">
          <mxGeometry x="70" y="230" width="120" height="60" as="geometry" />
        </mxCell>
        <mxCell id="xCJOUk_nlppZlGT4sAmL-8" value="将开始时间，结束时间，进度等状态写入" style="edgeStyle=orthogonalEdgeStyle;rounded=0;orthogonalLoop=1;jettySize=auto;html=1;entryX=0.5;entryY=0;entryDx=0;entryDy=0;" parent="1" source="xCJOUk_nlppZlGT4sAmL-5" target="xCJOUk_nlppZlGT4sAmL-7" edge="1">
          <mxGeometry relative="1" as="geometry" />
        </mxCell>
        <mxCell id="xvb4MUw1szfaOKgbHXFY-2" value="回调" style="edgeStyle=orthogonalEdgeStyle;rounded=0;orthogonalLoop=1;jettySize=auto;html=1;" parent="1" source="xCJOUk_nlppZlGT4sAmL-5" target="xvb4MUw1szfaOKgbHXFY-1" edge="1">
          <mxGeometry relative="1" as="geometry" />
        </mxCell>
        <mxCell id="xCJOUk_nlppZlGT4sAmL-5" value="执行md5计算" style="rounded=0;whiteSpace=wrap;html=1;" parent="1" vertex="1">
          <mxGeometry x="450" y="70" width="120" height="60" as="geometry" />
        </mxCell>
        <mxCell id="xCJOUk_nlppZlGT4sAmL-7" value="缓存" style="rounded=0;whiteSpace=wrap;html=1;" parent="1" vertex="1">
          <mxGeometry x="450" y="230" width="120" height="60" as="geometry" />
        </mxCell>
        <mxCell id="xvb4MUw1szfaOKgbHXFY-1" value="第三方" style="rounded=0;whiteSpace=wrap;html=1;fillColor=#d5e8d4;strokeColor=#82b366;" parent="1" vertex="1">
          <mxGeometry x="660" y="70" width="120" height="60" as="geometry" />
        </mxCell>
        <mxCell id="xTGyEX7kMLGWxDFuv8Kp-1" value="isWorking" style="rounded=0;whiteSpace=wrap;html=1;fillColor=#dae8fc;strokeColor=#6c8ebf;" parent="1" vertex="1">
          <mxGeometry x="71" y="370" width="120" height="60" as="geometry" />
        </mxCell>
        <mxCell id="3F_a-cN-I69hapElGCvo-4" value="注册" style="edgeStyle=orthogonalEdgeStyle;rounded=0;orthogonalLoop=1;jettySize=auto;html=1;exitX=1;exitY=0.5;exitDx=0;exitDy=0;entryX=0;entryY=0.5;entryDx=0;entryDy=0;" parent="1" source="3F_a-cN-I69hapElGCvo-1" target="3F_a-cN-I69hapElGCvo-3" edge="1">
          <mxGeometry relative="1" as="geometry" />
        </mxCell>
        <mxCell id="3F_a-cN-I69hapElGCvo-1" value="启动时根据配置自动注册到管理端" style="rounded=0;whiteSpace=wrap;html=1;" parent="1" vertex="1">
          <mxGeometry x="70" y="555" width="120" height="60" as="geometry" />
        </mxCell>
        <mxCell id="3F_a-cN-I69hapElGCvo-3" value="MD5管理端" style="rounded=0;whiteSpace=wrap;html=1;fillColor=#ffe6cc;strokeColor=#d79b00;" parent="1" vertex="1">
          <mxGeometry x="530" y="555" width="120" height="60" as="geometry" />
        </mxCell>
      </root>
    </mxGraphModel>
  </diagram>
  <diagram id="CkjEr-vj1TwtATfTT5om" name="MD5管理端">
    <mxGraphModel dx="1381" dy="890" grid="1" gridSize="10" guides="1" tooltips="1" connect="1" arrows="1" fold="1" page="1" pageScale="1" pageWidth="827" pageHeight="1169" math="0" shadow="0">
      <root>
        <mxCell id="pD-obUyEzkE79_Fu9p86-0" />
        <mxCell id="pD-obUyEzkE79_Fu9p86-1" parent="pD-obUyEzkE79_Fu9p86-0" />
        <mxCell id="8QeqpfEdfmeAyonV3E3P-1" value="下发任务：ID" style="edgeStyle=orthogonalEdgeStyle;rounded=0;orthogonalLoop=1;jettySize=auto;html=1;exitX=1;exitY=0.5;exitDx=0;exitDy=0;entryX=0.5;entryY=0;entryDx=0;entryDy=0;" parent="pD-obUyEzkE79_Fu9p86-1" source="8QeqpfEdfmeAyonV3E3P-3" target="8QeqpfEdfmeAyonV3E3P-0" edge="1">
          <mxGeometry x="0.0071" relative="1" as="geometry">
            <mxPoint as="offset" />
          </mxGeometry>
        </mxCell>
        <mxCell id="pj6sRofI2khXpzfL-eum-0" value="生成任务ID，将任务加入队列中" style="edgeStyle=orthogonalEdgeStyle;rounded=0;orthogonalLoop=1;jettySize=auto;html=1;entryX=0;entryY=0.5;entryDx=0;entryDy=0;exitX=0.45;exitY=0;exitDx=0;exitDy=0;exitPerimeter=0;" parent="pD-obUyEzkE79_Fu9p86-1" source="BkSrPA6vsREYZLOBG8kc-0" target="8QeqpfEdfmeAyonV3E3P-3" edge="1">
          <mxGeometry relative="1" as="geometry" />
        </mxCell>
        <mxCell id="BkSrPA6vsREYZLOBG8kc-0" value="创建MD5任务，返回ID给调用方" style="rounded=0;whiteSpace=wrap;html=1;fillColor=#dae8fc;strokeColor=#6c8ebf;" parent="pD-obUyEzkE79_Fu9p86-1" vertex="1">
          <mxGeometry x="80" y="330" width="120" height="60" as="geometry" />
        </mxCell>
        <mxCell id="eEpEQpnTVAiNZk7LBNJG-0" value="集群状态查询" style="rounded=0;whiteSpace=wrap;html=1;fillColor=#dae8fc;strokeColor=#6c8ebf;" parent="pD-obUyEzkE79_Fu9p86-1" vertex="1">
          <mxGeometry x="80" y="420" width="120" height="60" as="geometry" />
        </mxCell>
        <mxCell id="pj6sRofI2khXpzfL-eum-2" value="启动时自动注册到管理端" style="edgeStyle=orthogonalEdgeStyle;rounded=0;orthogonalLoop=1;jettySize=auto;html=1;exitX=0.75;exitY=0;exitDx=0;exitDy=0;entryX=1;entryY=0.5;entryDx=0;entryDy=0;" parent="pD-obUyEzkE79_Fu9p86-1" source="8QeqpfEdfmeAyonV3E3P-0" target="pj6sRofI2khXpzfL-eum-1" edge="1">
          <mxGeometry relative="1" as="geometry" />
        </mxCell>
        <mxCell id="8QeqpfEdfmeAyonV3E3P-0" value="MD5执行端" style="rounded=0;whiteSpace=wrap;html=1;" parent="pD-obUyEzkE79_Fu9p86-1" vertex="1">
          <mxGeometry x="570" y="410" width="206" height="280" as="geometry" />
        </mxCell>
        <mxCell id="8QeqpfEdfmeAyonV3E3P-3" value="&lt;font style=&quot;font-size: 16px ; background-color: rgb(255 , 255 , 0)&quot;&gt;任务队列&lt;/font&gt;&lt;br&gt;轮询队列&lt;br&gt;查询空闲MD5执行端&lt;br&gt;下发任务并写库" style="whiteSpace=wrap;html=1;aspect=fixed;" parent="pD-obUyEzkE79_Fu9p86-1" vertex="1">
          <mxGeometry x="300" y="220" width="120" height="120" as="geometry" />
        </mxCell>
        <mxCell id="pj6sRofI2khXpzfL-eum-4" value="" style="edgeStyle=orthogonalEdgeStyle;rounded=0;orthogonalLoop=1;jettySize=auto;html=1;" parent="pD-obUyEzkE79_Fu9p86-1" source="pj6sRofI2khXpzfL-eum-1" target="pj6sRofI2khXpzfL-eum-3" edge="1">
          <mxGeometry relative="1" as="geometry" />
        </mxCell>
        <mxCell id="pj6sRofI2khXpzfL-eum-1" value="MD5执行端注册接口" style="rounded=0;whiteSpace=wrap;html=1;fillColor=#dae8fc;strokeColor=#6c8ebf;" parent="pD-obUyEzkE79_Fu9p86-1" vertex="1">
          <mxGeometry x="300" y="20" width="120" height="60" as="geometry" />
        </mxCell>
        <mxCell id="pj6sRofI2khXpzfL-eum-5" value="将执行端加入集合中" style="edgeStyle=orthogonalEdgeStyle;rounded=0;orthogonalLoop=1;jettySize=auto;html=1;" parent="pD-obUyEzkE79_Fu9p86-1" source="pj6sRofI2khXpzfL-eum-3" target="pj6sRofI2khXpzfL-eum-1" edge="1">
          <mxGeometry relative="1" as="geometry" />
        </mxCell>
        <mxCell id="pj6sRofI2khXpzfL-eum-3" value="&lt;font style=&quot;font-size: 16px ; background-color: rgb(255 , 255 , 51)&quot;&gt;执行端集合&lt;/font&gt;&lt;br&gt;：&lt;br&gt;ip，执行任务数量" style="rounded=0;whiteSpace=wrap;html=1;" parent="pD-obUyEzkE79_Fu9p86-1" vertex="1">
          <mxGeometry x="300" y="110" width="120" height="60" as="geometry" />
        </mxCell>
        <mxCell id="pj6sRofI2khXpzfL-eum-7" value="向数据库查询" style="edgeStyle=orthogonalEdgeStyle;rounded=0;orthogonalLoop=1;jettySize=auto;html=1;entryX=0;entryY=0.5;entryDx=0;entryDy=0;" parent="pD-obUyEzkE79_Fu9p86-1" source="pj6sRofI2khXpzfL-eum-6" target="mq54mdfgHksA0-FcVedB-0" edge="1">
          <mxGeometry relative="1" as="geometry" />
        </mxCell>
        <mxCell id="pj6sRofI2khXpzfL-eum-6" value="任务状态查询" style="rounded=0;whiteSpace=wrap;html=1;fillColor=#dae8fc;strokeColor=#6c8ebf;" parent="pD-obUyEzkE79_Fu9p86-1" vertex="1">
          <mxGeometry x="80" y="525" width="120" height="60" as="geometry" />
        </mxCell>
        <mxCell id="mq54mdfgHksA0-FcVedB-1" value="向执行端查询" style="edgeStyle=orthogonalEdgeStyle;rounded=0;orthogonalLoop=1;jettySize=auto;html=1;exitX=1;exitY=0.5;exitDx=0;exitDy=0;entryX=0;entryY=0.5;entryDx=0;entryDy=0;" edge="1" parent="pD-obUyEzkE79_Fu9p86-1" source="mq54mdfgHksA0-FcVedB-0" target="8QeqpfEdfmeAyonV3E3P-0">
          <mxGeometry relative="1" as="geometry">
            <Array as="points">
              <mxPoint x="500" y="555" />
              <mxPoint x="500" y="550" />
            </Array>
          </mxGeometry>
        </mxCell>
        <mxCell id="mq54mdfgHksA0-FcVedB-0" value="&lt;font style=&quot;font-size: 16px ; background-color: rgb(255 , 255 , 0)&quot;&gt;工作队列&lt;/font&gt;&lt;br&gt;&lt;span&gt;轮询队列&lt;/span&gt;&lt;br&gt;&lt;span&gt;查询队列中任务的状态并写库&lt;/span&gt;" style="rounded=0;whiteSpace=wrap;html=1;" vertex="1" parent="pD-obUyEzkE79_Fu9p86-1">
          <mxGeometry x="310" y="515" width="120" height="80" as="geometry" />
        </mxCell>
        <mxCell id="jQ7U2IyGc0_zJgypHKKe-0" value="任务停止" style="rounded=0;whiteSpace=wrap;html=1;fillColor=#dae8fc;strokeColor=#6c8ebf;" vertex="1" parent="pD-obUyEzkE79_Fu9p86-1">
          <mxGeometry x="80" y="630" width="120" height="60" as="geometry" />
        </mxCell>
        <mxCell id="jQ7U2IyGc0_zJgypHKKe-1" value="任务重试" style="rounded=0;whiteSpace=wrap;html=1;fillColor=#dae8fc;strokeColor=#6c8ebf;" vertex="1" parent="pD-obUyEzkE79_Fu9p86-1">
          <mxGeometry x="80" y="730" width="120" height="60" as="geometry" />
        </mxCell>
        <mxCell id="jQ7U2IyGc0_zJgypHKKe-2" value="任务优先级调整" style="rounded=0;whiteSpace=wrap;html=1;fillColor=#dae8fc;strokeColor=#6c8ebf;" vertex="1" parent="pD-obUyEzkE79_Fu9p86-1">
          <mxGeometry x="80" y="820" width="120" height="60" as="geometry" />
        </mxCell>
      </root>
    </mxGraphModel>
  </diagram>
  <diagram id="fqGaz1YixJYyGbtJA_QN" name="测试模块">
    <mxGraphModel dx="1381" dy="890" grid="1" gridSize="10" guides="1" tooltips="1" connect="1" arrows="1" fold="1" page="1" pageScale="1" pageWidth="827" pageHeight="1169" math="0" shadow="0">
      <root>
        <mxCell id="_oThMeBDkMpjmNqSBP6x-0" />
        <mxCell id="_oThMeBDkMpjmNqSBP6x-1" parent="_oThMeBDkMpjmNqSBP6x-0" />
        <mxCell id="_oThMeBDkMpjmNqSBP6x-5" value="" style="edgeStyle=orthogonalEdgeStyle;rounded=0;orthogonalLoop=1;jettySize=auto;html=1;entryX=0;entryY=0.5;entryDx=0;entryDy=0;" parent="_oThMeBDkMpjmNqSBP6x-1" source="_oThMeBDkMpjmNqSBP6x-2" target="_oThMeBDkMpjmNqSBP6x-4" edge="1">
          <mxGeometry relative="1" as="geometry">
            <mxPoint x="270" y="400" as="targetPoint" />
            <Array as="points">
              <mxPoint x="160" y="400" />
            </Array>
          </mxGeometry>
        </mxCell>
        <mxCell id="_oThMeBDkMpjmNqSBP6x-2" value="发起任务" style="rounded=0;whiteSpace=wrap;html=1;fillColor=#dae8fc;strokeColor=#6c8ebf;" parent="_oThMeBDkMpjmNqSBP6x-1" vertex="1">
          <mxGeometry x="110" y="220" width="120" height="60" as="geometry" />
        </mxCell>
        <mxCell id="_oThMeBDkMpjmNqSBP6x-13" value="根据ID查询任务状态" style="edgeStyle=orthogonalEdgeStyle;rounded=0;orthogonalLoop=1;jettySize=auto;html=1;" parent="_oThMeBDkMpjmNqSBP6x-1" source="_oThMeBDkMpjmNqSBP6x-3" target="_oThMeBDkMpjmNqSBP6x-4" edge="1">
          <mxGeometry x="-0.4545" relative="1" as="geometry">
            <Array as="points">
              <mxPoint x="350" y="220" />
              <mxPoint x="350" y="220" />
            </Array>
            <mxPoint as="offset" />
          </mxGeometry>
        </mxCell>
        <mxCell id="9sdfu4T4Dndy-RtgNsHt-0" value="查询集群状态" style="edgeStyle=orthogonalEdgeStyle;rounded=0;orthogonalLoop=1;jettySize=auto;html=1;" parent="_oThMeBDkMpjmNqSBP6x-1" source="_oThMeBDkMpjmNqSBP6x-3" target="_oThMeBDkMpjmNqSBP6x-4" edge="1">
          <mxGeometry relative="1" as="geometry">
            <mxPoint x="423" y="418" as="targetPoint" />
            <Array as="points">
              <mxPoint x="420" y="300" />
              <mxPoint x="420" y="300" />
            </Array>
          </mxGeometry>
        </mxCell>
        <mxCell id="_oThMeBDkMpjmNqSBP6x-3" value="查询任务&lt;br&gt;map+thread" style="rounded=0;whiteSpace=wrap;html=1;" parent="_oThMeBDkMpjmNqSBP6x-1" vertex="1">
          <mxGeometry x="280" y="40" width="210" height="110" as="geometry" />
        </mxCell>
        <mxCell id="_oThMeBDkMpjmNqSBP6x-9" value="md5计算结束回调" style="edgeStyle=orthogonalEdgeStyle;rounded=0;orthogonalLoop=1;jettySize=auto;html=1;exitX=1;exitY=0.5;exitDx=0;exitDy=0;" parent="_oThMeBDkMpjmNqSBP6x-1" source="_oThMeBDkMpjmNqSBP6x-4" target="_oThMeBDkMpjmNqSBP6x-6" edge="1">
          <mxGeometry relative="1" as="geometry">
            <Array as="points">
              <mxPoint x="620" y="400" />
            </Array>
          </mxGeometry>
        </mxCell>
        <mxCell id="_oThMeBDkMpjmNqSBP6x-14" value="&lt;span style=&quot;color: rgb(0 , 0 , 0) ; font-family: &amp;#34;helvetica&amp;#34; ; font-size: 11px ; font-style: normal ; font-weight: 400 ; letter-spacing: normal ; text-align: center ; text-indent: 0px ; text-transform: none ; word-spacing: 0px ; background-color: rgb(255 , 255 , 255) ; display: inline ; float: none&quot;&gt;管理端返回任务ID&lt;/span&gt;" style="edgeStyle=orthogonalEdgeStyle;rounded=0;orthogonalLoop=1;jettySize=auto;html=1;exitX=0;exitY=0.25;exitDx=0;exitDy=0;" parent="_oThMeBDkMpjmNqSBP6x-1" source="_oThMeBDkMpjmNqSBP6x-4" target="_oThMeBDkMpjmNqSBP6x-2" edge="1">
          <mxGeometry relative="1" as="geometry">
            <Array as="points">
              <mxPoint x="260" y="385" />
              <mxPoint x="260" y="250" />
            </Array>
          </mxGeometry>
        </mxCell>
        <mxCell id="_oThMeBDkMpjmNqSBP6x-4" value="调用MD5管理端" style="rounded=0;whiteSpace=wrap;html=1;" parent="_oThMeBDkMpjmNqSBP6x-1" vertex="1">
          <mxGeometry x="325" y="370" width="120" height="60" as="geometry" />
        </mxCell>
        <mxCell id="_oThMeBDkMpjmNqSBP6x-10" value="更新Map" style="edgeStyle=orthogonalEdgeStyle;rounded=0;orthogonalLoop=1;jettySize=auto;html=1;exitX=0.5;exitY=0;exitDx=0;exitDy=0;" parent="_oThMeBDkMpjmNqSBP6x-1" source="_oThMeBDkMpjmNqSBP6x-6" edge="1">
          <mxGeometry relative="1" as="geometry">
            <mxPoint x="490" y="105" as="targetPoint" />
            <Array as="points">
              <mxPoint x="620" y="105" />
            </Array>
          </mxGeometry>
        </mxCell>
        <mxCell id="_oThMeBDkMpjmNqSBP6x-6" value="回调接口" style="rounded=0;whiteSpace=wrap;html=1;fillColor=#dae8fc;strokeColor=#6c8ebf;" parent="_oThMeBDkMpjmNqSBP6x-1" vertex="1">
          <mxGeometry x="560" y="220" width="120" height="60" as="geometry" />
        </mxCell>
        <mxCell id="_oThMeBDkMpjmNqSBP6x-8" style="edgeStyle=orthogonalEdgeStyle;rounded=0;orthogonalLoop=1;jettySize=auto;html=1;entryX=0.417;entryY=-0.033;entryDx=0;entryDy=0;entryPerimeter=0;exitX=0.5;exitY=1;exitDx=0;exitDy=0;" parent="_oThMeBDkMpjmNqSBP6x-1" source="_oThMeBDkMpjmNqSBP6x-7" target="_oThMeBDkMpjmNqSBP6x-2" edge="1">
          <mxGeometry relative="1" as="geometry">
            <Array as="points">
              <mxPoint x="160" y="110" />
            </Array>
          </mxGeometry>
        </mxCell>
        <mxCell id="_oThMeBDkMpjmNqSBP6x-7" value="postman" style="rounded=0;whiteSpace=wrap;html=1;fillColor=#e1d5e7;strokeColor=#9673a6;" parent="_oThMeBDkMpjmNqSBP6x-1" vertex="1">
          <mxGeometry x="100" y="50" width="120" height="60" as="geometry" />
        </mxCell>
      </root>
    </mxGraphModel>
  </diagram>
</mxfile>
